<?xml version="1.0" standalone="no"?>
<!DOCTYPE svg PUBLIC "-//W3C//DTD SVG 20010904//EN"
 "http://www.w3.org/TR/2001/REC-SVG-20010904/DTD/svg10.dtd">
<svg version="1.0" xmlns="http://www.w3.org/2000/svg"
 width="800.000000pt" height="800.000000pt" viewBox="0 0 800.000000 800.000000"
 preserveAspectRatio="xMidYMid meet">
<metadata>
Created by potrace 1.14, written by Peter Selinger 2001-2017
</metadata>
<g transform="translate(0.000000,800.000000) scale(0.100000,-0.100000)"
fill="#000000" stroke="none">
<path d="M830 7981 c24 -19 24 -20 7 -39 -18 -20 -18 -20 5 -27 42 -14 52 -52
16 -57 -23 -3 -40 -48 -19 -48 6 0 11 -6 11 -14 0 -8 6 -17 13 -20 8 -3 6 -9
-7 -20 -19 -15 -18 -16 17 -31 52 -21 93 -2 81 38 -4 13 -1 17 12 15 12 -2 26
14 48 57 36 71 62 97 130 130 55 27 75 25 133 -10 49 -30 45 -65 -9 -90 -31
-15 -44 -27 -46 -45 -2 -14 -10 -32 -18 -41 -10 -11 -11 -18 -3 -26 14 -14 4
-32 -19 -32 -9 0 -37 -4 -62 -10 -25 -5 -73 -14 -107 -21 -42 -8 -64 -17 -68
-29 -3 -9 -18 -22 -35 -28 -16 -6 -30 -18 -30 -26 0 -9 -13 -18 -30 -22 -17
-4 -30 -13 -30 -21 0 -8 -10 -28 -22 -44 -29 -40 -108 -57 -186 -41 -68 14
-182 14 -216 1 -22 -8 -26 -16 -26 -47 0 -21 9 -56 19 -79 10 -23 17 -52 14
-65 -4 -23 -8 -24 -78 -23 -76 1 -119 18 -157 63 -15 18 -16 24 -3 54 8 18 21
39 29 46 8 7 12 19 9 27 -3 9 12 30 41 55 25 22 46 47 46 55 0 24 -36 87 -69
121 -17 18 -31 35 -31 39 0 15 -35 37 -70 45 -28 6 -46 5 -67 -6 -15 -8 -34
-15 -41 -15 -10 0 -12 -70 -10 -332 l3 -332 30 -6 c34 -8 93 -36 112 -55 7 -7
18 -15 25 -17 26 -9 11 -139 -20 -170 -7 -7 -12 -22 -12 -34 0 -13 -5 -26 -11
-29 -14 -9 -2 -85 17 -106 8 -8 14 -21 14 -27 0 -7 7 -12 15 -12 8 0 26 -18
41 -40 23 -34 32 -40 73 -45 88 -11 111 -16 111 -23 0 -4 12 -20 26 -35 24
-26 25 -30 10 -46 -9 -10 -16 -24 -16 -33 0 -8 -9 -23 -19 -32 -10 -9 -17 -25
-14 -35 5 -21 -41 -53 -133 -94 -46 -20 -78 -27 -124 -27 -46 0 -72 -6 -96
-21 l-34 -21 0 -264 c0 -258 1 -265 19 -259 41 13 143 -60 163 -115 18 -52 84
-69 155 -39 28 12 36 10 77 -11 25 -13 46 -27 46 -31 0 -4 17 -24 37 -43 43
-40 55 -40 117 2 22 15 54 36 72 47 78 48 151 101 174 127 l25 28 159 5 c148
4 162 3 193 -16 18 -12 38 -30 44 -42 15 -27 13 -94 -5 -189 -15 -77 -12 -118
7 -118 6 0 57 50 115 110 118 125 144 137 162 73 38 -140 59 -489 40 -658 -15
-129 -10 -145 43 -145 41 0 27 -11 -25 -21 -94 -17 -141 -36 -149 -57 -5 -12
-13 -22 -18 -22 -5 0 -16 -6 -23 -14 -8 -7 -32 -23 -54 -34 -62 -31 -68 -44
-34 -67 18 -12 33 -34 41 -62 6 -24 17 -44 23 -44 27 -3 118 -8 205 -11 103
-4 113 -10 131 -78 85 -334 92 -354 157 -458 34 -55 62 -86 112 -122 36 -26
84 -68 107 -92 46 -49 119 -110 143 -120 9 -4 46 -7 84 -7 47 -1 67 -5 67 -14
0 -7 30 -61 68 -120 89 -142 120 -199 121 -218 1 -9 -11 -29 -25 -44 l-26 -29
33 -28 c34 -27 55 -29 119 -12 8 2 41 -16 73 -41 46 -37 57 -51 57 -74 0 -16
3 -37 7 -47 4 -11 2 -15 -4 -11 -9 6 -57 -4 -158 -32 -16 -5 -61 -9 -100 -10
-104 -1 -163 -19 -181 -54 -15 -28 -15 -29 35 -79 49 -48 50 -52 35 -70 -10
-10 -23 -18 -31 -18 -8 0 -12 -4 -8 -9 9 -15 -68 0 -81 15 -16 20 -59 34 -125
40 -46 5 -60 3 -65 -9 -5 -13 -90 -35 -139 -36 -21 0 -48 -4 -185 -24 -75 -11
-85 -15 -88 -34 -3 -17 5 -26 35 -38 45 -19 61 -19 317 -4 137 9 203 9 215 2
10 -6 25 -7 40 -1 13 4 32 6 42 3 11 -4 21 1 27 12 9 16 31 17 271 14 l261 -3
0 61 c0 33 -7 86 -16 118 -44 158 -43 170 2 134 15 -11 38 -21 51 -21 15 0 37
-12 53 -30 15 -16 32 -30 37 -30 4 0 24 -22 43 -50 19 -27 38 -49 43 -50 4 0
7 -6 7 -12 0 -7 23 -37 50 -67 28 -29 50 -62 50 -71 0 -21 23 -33 68 -35 21
-2 32 2 32 11 0 8 5 14 10 14 6 0 10 8 11 18 0 11 2 12 6 4 3 -9 9 -10 17 -3
8 7 37 8 82 2 38 -4 88 -7 112 -5 30 2 42 0 42 -10 0 -9 21 -15 63 -20 34 -3
109 -15 167 -26 l105 -20 120 21 c66 11 147 24 180 30 32 6 64 14 71 20 6 5
26 6 44 2 20 -3 31 -2 27 3 -3 6 10 9 29 9 22 -1 34 3 34 12 0 7 5 13 11 13 5
0 7 -4 4 -10 -4 -6 8 -10 29 -10 32 0 36 3 36 26 0 16 5 24 13 21 6 -2 11 -11
9 -20 -2 -11 8 -18 32 -22 23 -5 33 -11 29 -20 -2 -8 0 -22 6 -32 9 -15 10
-13 11 15 0 33 4 35 51 32 22 -1 29 7 53 59 15 34 36 66 47 71 21 12 26 46 7
52 -18 6 0 28 23 28 11 0 22 7 25 15 4 8 11 15 18 15 6 0 22 14 36 31 17 20
36 32 55 33 17 1 41 6 54 10 22 8 23 6 16 -26 -4 -18 -16 -58 -26 -88 -15 -46
-19 -88 -19 -248 0 -172 3 -204 24 -290 13 -53 29 -122 35 -152 11 -52 18 -62
129 -173 64 -65 128 -123 142 -130 14 -7 26 -23 28 -37 2 -14 10 -29 18 -33 8
-4 14 -18 14 -30 0 -37 47 -57 132 -57 67 1 71 2 53 16 -18 13 -19 25 -17 112
4 108 10 122 67 131 44 7 49 24 10 31 -38 7 -43 27 -11 42 33 15 28 32 -10 36
-48 6 -54 18 -54 104 0 67 -2 79 -15 74 -18 -7 -20 19 -2 31 6 4 39 8 72 8 53
0 60 2 60 20 0 14 -9 21 -34 26 -18 4 -45 13 -59 20 l-25 14 6 122 c7 146 6
147 -87 141 -67 -4 -96 -21 -96 -57 0 -11 -6 -24 -14 -28 -8 -4 -16 -21 -18
-38 -2 -24 -9 -31 -38 -37 -51 -11 -100 0 -100 23 0 10 5 21 10 24 6 4 8 15 5
25 -3 10 -1 21 5 25 22 14 8 25 -32 25 -24 0 -73 3 -110 6 l-67 7 -6 72 c-7
68 -5 78 44 220 l52 149 74 76 c41 41 95 102 120 135 26 33 64 79 86 102 21
23 39 47 39 53 0 16 45 3 122 -35 37 -19 80 -33 95 -32 22 2 27 -2 25 -15 -2
-10 2 -18 8 -18 5 0 10 7 10 15 0 8 4 15 10 15 5 0 7 -7 3 -16 -5 -14 -1 -16
33 -10 21 4 56 9 77 13 21 3 41 11 44 19 3 8 10 14 15 14 6 0 5 -7 -2 -15 -7
-9 -10 -18 -7 -21 10 -10 47 7 47 21 0 7 7 16 16 19 23 9 27 8 20 -9 -7 -19 1
-19 20 0 17 16 60 20 68 6 8 -12 69 -12 87 0 11 7 9 9 -6 9 -11 0 -28 9 -38
20 -23 27 -21 33 5 24 44 -14 151 -1 110 13 -19 7 -4 23 23 23 13 0 27 5 30
10 3 6 26 10 49 10 37 0 45 4 49 22 4 12 1 26 -6 30 -6 4 -8 11 -3 15 14 14
35 -28 29 -58 -5 -28 -4 -29 38 -30 24 -1 83 0 132 1 48 1 87 -2 87 -7 0 -12
109 -16 123 -4 7 5 39 13 72 16 49 6 63 4 74 -9 7 -9 19 -16 25 -16 7 0 27
-11 45 -24 35 -26 85 -27 127 -1 13 9 73 15 165 18 95 4 159 11 187 21 39 15
47 15 93 0 28 -9 56 -22 62 -28 31 -30 94 -74 114 -80 11 -4 33 -22 47 -40 14
-19 41 -44 60 -55 34 -21 86 -96 86 -124 0 -8 7 -20 15 -27 8 -7 12 -17 9 -22
-7 -11 22 -45 49 -60 18 -9 18 -3 14 129 -5 160 -11 217 -26 256 -9 24 -16 27
-56 27 -28 0 -44 4 -40 10 3 6 18 10 33 10 21 0 24 2 12 10 -8 5 -36 10 -62
10 -77 0 -90 12 -28 26 30 7 69 13 86 14 17 0 43 9 58 21 24 19 26 27 26 89
l0 69 -32 3 c-22 2 -56 -8 -103 -32 -54 -27 -81 -35 -120 -34 -66 2 -118 14
-130 30 -14 20 -76 24 -107 8 -15 -8 -40 -14 -55 -14 -43 0 -153 45 -153 62 0
4 -7 8 -15 8 -9 0 -15 7 -13 17 4 21 -29 30 -45 14 -9 -9 -8 -14 2 -20 15 -10
-19 -20 -79 -23 -19 -1 -42 -7 -50 -14 -10 -8 -59 -16 -125 -19 -61 -4 -114
-9 -118 -12 -5 -3 -54 -4 -110 -3 -127 3 -121 3 -187 -9 -36 -7 -56 -7 -58 -1
-2 6 -22 10 -45 10 -23 0 -58 5 -77 11 -47 14 -202 20 -216 8 -6 -5 -44 -10
-85 -12 -41 -1 -79 -6 -85 -10 -6 -3 -43 -10 -81 -13 -65 -6 -70 -5 -75 14 -4
13 -16 22 -32 24 l-26 3 33 36 c52 56 117 100 139 93 11 -3 25 0 33 6 9 7 28
10 47 6 18 -3 67 1 108 10 131 28 207 29 270 4 69 -27 179 -36 249 -21 30 6
104 14 165 17 61 4 121 10 134 15 31 12 139 11 147 -1 3 -5 32 -12 65 -16 50
-5 60 -10 60 -25 0 -26 23 -24 35 4 9 21 18 22 135 29 91 4 144 12 195 29 63
22 85 24 218 21 82 -2 157 0 168 3 18 6 19 17 19 214 l0 208 -24 11 c-18 8
-43 8 -83 2 -78 -13 -157 -12 -187 1 -20 9 -39 9 -89 -4 -77 -19 -138 -10
-166 24 -11 13 -20 32 -21 42 0 10 -12 22 -27 28 -15 6 -30 15 -34 21 -7 10
-151 30 -172 23 -7 -2 -61 -6 -121 -9 -60 -3 -114 -10 -119 -15 -6 -6 -13 -27
-16 -47 -11 -66 -108 -101 -178 -66 -43 22 -70 49 -59 59 3 3 -1 15 -11 25
-10 11 -12 18 -4 18 21 0 -6 37 -36 49 -46 19 -71 36 -92 63 -25 31 -87 50
-166 49 -33 0 -82 1 -110 2 l-50 2 -3 66 c-3 65 -2 67 25 74 51 12 212 6 243
-10 16 -8 38 -15 48 -15 33 0 87 -43 87 -70 0 -30 24 -37 66 -20 17 8 29 20
29 31 0 11 5 19 10 19 6 0 10 9 10 19 0 36 27 51 91 51 33 0 67 -5 78 -11 23
-15 82 -4 110 20 32 28 88 34 146 16 28 -8 64 -15 80 -15 31 0 135 -48 167
-77 10 -9 18 -22 18 -29 0 -43 107 -60 138 -22 39 49 54 60 74 55 11 -3 28 -2
37 2 91 46 172 64 186 41 3 -5 14 -10 24 -10 10 0 24 -7 31 -15 7 -8 25 -15
41 -15 l29 0 0 1760 0 1760 -574 0 -574 0 -42 -50 c-23 -27 -51 -50 -61 -50
-11 0 -19 -5 -19 -11 0 -13 -25 -39 -39 -39 -5 0 -17 -9 -25 -21 -10 -15 -27
-22 -58 -24 -24 -2 -70 -10 -103 -18 -46 -12 -100 -15 -234 -11 l-175 4 -28
-33 c-21 -25 -27 -28 -28 -14 0 10 7 28 15 41 22 34 3 46 -58 36 -59 -9 -92
12 -92 57 0 27 -2 28 -60 33 -48 4 -76 14 -142 53 l-82 47 -1733 -2 -1732 -3
-9 -37 c-7 -28 -24 -49 -81 -96 -40 -32 -102 -87 -139 -122 -66 -61 -77 -67
-57 -31 7 14 5 23 -10 36 -17 15 -24 16 -46 6 -21 -9 -24 -14 -14 -26 7 -8 11
-15 9 -16 -2 0 -12 -2 -22 -4 -26 -5 -27 -7 -48 -71 -16 -49 -17 -60 -5 -88 7
-17 21 -56 31 -86 10 -30 26 -66 36 -79 11 -13 17 -27 14 -31 -3 -5 -29 -8
-58 -8 -28 0 -97 -7 -152 -16 -54 -8 -101 -13 -103 -11 -2 2 1 12 7 23 6 12
11 29 11 39 0 34 -52 119 -88 144 -66 44 -82 69 -82 122 0 40 -3 50 -20 54
-21 6 -28 23 -9 23 8 0 8 4 0 14 -9 11 -9 15 1 19 10 3 10 8 2 16 -8 9 -8 22
2 49 11 34 15 37 52 37 22 0 48 7 58 16 12 11 52 20 109 26 87 9 91 9 112 -14
12 -12 33 -23 46 -23 14 0 30 -7 37 -15 18 -22 28 -19 77 21 44 36 53 51 67
107 l6 27 -542 0 c-536 0 -543 -1 -518 -19z m121 -180 c-8 -5 -20 -7 -28 -4
-21 8 -15 13 15 13 20 0 23 -3 13 -9z m5399 -215 c0 -20 -19 -31 -32 -18 -6 6
-7 15 -4 21 10 16 36 13 36 -3z m-5360 -440 c14 -13 39 -32 55 -42 17 -10 36
-27 43 -36 7 -10 19 -18 25 -18 7 0 23 -17 37 -37 70 -104 117 -138 171 -123
28 8 39 20 63 69 26 55 28 64 19 110 -6 28 -8 51 -6 51 20 0 185 -119 181
-131 -2 -4 -38 -49 -82 -99 l-78 -92 30 -66 c35 -75 72 -169 72 -180 0 -4 -55
-7 -123 -8 -142 -1 -179 -11 -265 -77 -83 -63 -211 -113 -227 -87 -3 5 -11 7
-17 4 -5 -3 -33 5 -61 19 -34 17 -91 31 -162 42 -144 21 -159 28 -184 80 -11
24 -28 48 -38 53 -14 9 -15 13 -4 26 7 9 19 16 25 16 6 1 21 9 34 19 17 15 22
30 22 65 0 43 -11 69 -61 151 -10 17 -21 51 -25 75 -4 25 -11 50 -16 57 -6 7
-6 19 0 30 5 10 13 37 17 61 5 32 15 49 41 68 19 15 41 24 49 20 9 -3 39 -1
67 5 36 8 61 8 87 1 28 -9 55 -7 121 6 96 20 142 12 190 -32z m5500 -476 c0
-5 18 -8 41 -6 25 3 42 0 45 -8 2 -7 21 -13 42 -14 20 -2 43 -9 52 -16 8 -7
32 -19 52 -25 20 -7 42 -19 48 -27 8 -9 32 -14 67 -14 29 0 70 -7 90 -15 19
-8 43 -15 53 -15 9 0 25 -9 35 -20 10 -11 28 -20 41 -20 26 0 154 -58 154 -70
0 -5 16 -14 35 -20 19 -6 35 -18 35 -25 0 -24 -12 -45 -26 -45 -7 0 -22 -10
-33 -21 -19 -21 -27 -22 -123 -16 -106 6 -257 40 -270 60 -19 31 -239 49 -280
24 -25 -16 -32 -4 -52 97 -24 121 -31 206 -17 206 6 0 11 -4 11 -10z m-2364
-215 c-9 -26 -31 -6 -65 58 l-33 62 52 -53 c32 -32 50 -58 46 -67z m651 -25
c9 -16 20 -30 24 -30 4 0 10 -7 13 -16 5 -14 4 -15 -9 -4 -9 7 -19 10 -23 6
-6 -7 24 -30 40 -31 10 0 96 -92 116 -125 9 -14 37 -52 62 -85 88 -115 258
-383 321 -508 11 -21 25 -37 32 -34 15 5 26 110 27 246 0 128 10 125 65 -19
21 -55 42 -100 46 -100 16 0 29 40 29 89 0 28 4 51 10 51 12 0 19 -29 34 -134
7 -44 16 -80 21 -79 13 3 45 93 45 128 1 17 7 51 13 78 l13 47 20 -27 c22 -30
94 -203 94 -227 0 -7 9 -25 21 -40 20 -25 21 -34 14 -162 -7 -130 -7 -135 13
-141 30 -7 36 -87 18 -234 -8 -68 -17 -151 -21 -184 -6 -67 -22 -168 -36 -234
-17 -75 -37 -205 -38 -241 0 -19 -5 -68 -10 -109 -5 -40 -6 -82 -2 -93 12 -32
39 39 52 139 7 48 18 93 24 98 21 18 55 89 62 128 4 26 13 41 27 47 12 4 29
18 40 30 17 21 24 22 91 17 117 -9 171 -61 191 -185 10 -63 -24 -304 -62 -442
-46 -165 -49 -171 -110 -270 -44 -71 -65 -94 -126 -137 -40 -29 -100 -78 -133
-109 -80 -75 -110 -88 -182 -74 -69 12 -93 13 -93 1 0 -17 -139 -296 -159
-321 -12 -14 -42 -52 -68 -86 -93 -118 -264 -257 -294 -239 -4 3 -17 -3 -28
-14 -22 -22 -104 -65 -143 -74 -16 -4 -28 -12 -28 -17 0 -6 -7 -10 -16 -10 -9
0 -44 -13 -78 -29 -33 -16 -100 -42 -148 -57 -49 -15 -88 -32 -88 -36 0 -4 -6
-8 -13 -8 -18 0 -67 -24 -67 -32 0 -5 -6 -8 -14 -8 -13 0 -120 -31 -256 -75
-35 -11 -62 -12 -125 -4 -117 14 -290 66 -364 110 -19 11 -86 38 -150 59 -170
58 -190 65 -203 78 -7 7 -16 12 -21 12 -5 0 -70 29 -143 65 -74 36 -141 65
-149 65 -8 0 -15 5 -15 10 0 6 -4 10 -10 10 -15 0 -75 43 -122 88 -24 23 -46
42 -50 42 -4 0 -26 27 -49 60 -23 33 -46 60 -50 60 -5 0 -9 6 -9 13 0 7 -10
23 -23 37 -28 31 -87 146 -87 170 0 10 -3 20 -7 22 -16 6 -47 81 -45 105 1 13
-2 22 -7 18 -5 -3 -21 -1 -36 5 -16 6 -32 7 -39 2 -6 -5 -34 -12 -61 -16 -62
-8 -91 7 -172 84 -32 31 -91 78 -130 106 -58 40 -83 66 -124 128 -70 108 -127
285 -154 481 -31 227 -12 338 66 383 46 27 155 40 186 23 34 -17 160 -220 147
-234 -6 -6 -68 27 -96 51 -11 9 -27 12 -50 7 -62 -12 -70 -16 -63 -32 4 -13 3
-13 -8 -4 -11 9 -17 8 -27 -4 -14 -17 -6 -47 12 -44 7 1 21 -1 30 -5 14 -7 15
-11 3 -39 -11 -27 -11 -38 2 -69 l15 -38 29 17 c28 17 31 17 63 -1 37 -20 46
-39 46 -103 0 -28 9 -58 29 -91 16 -27 35 -66 42 -88 21 -59 82 -167 98 -172
30 -10 1 74 -81 234 -44 87 -46 95 -41 153 3 34 9 61 14 61 11 0 40 -60 46
-95 8 -50 35 -139 46 -153 6 -8 10 -26 9 -41 -1 -18 6 -35 19 -47 l22 -19 -7
72 c-4 40 -11 87 -17 105 -5 18 -9 47 -9 63 0 17 -4 35 -9 41 -10 9 -33 233
-26 244 2 4 -9 84 -26 179 -43 253 -40 402 11 541 60 163 130 432 150 580 18
134 18 133 35 116 8 -8 15 -21 16 -28 1 -7 4 -2 8 12 7 22 14 12 63 -87 61
-121 127 -233 138 -233 15 0 37 248 42 472 2 65 6 118 11 118 4 0 7 -11 7 -25
0 -33 56 -88 82 -79 12 4 18 0 18 -11 0 -15 1 -15 16 -1 8 9 20 16 25 16 6 0
52 -20 102 -45 85 -41 127 -54 127 -39 0 3 -9 18 -19 33 -11 15 -39 81 -64
146 -24 66 -48 129 -52 140 -5 11 29 -19 76 -66 85 -86 164 -147 176 -136 3 4
-4 32 -15 64 -12 32 -28 87 -37 123 -9 36 -18 73 -21 83 -3 9 -1 17 5 17 6 0
11 -7 11 -15 0 -8 5 -15 10 -15 6 0 10 -8 10 -19 0 -11 9 -21 21 -24 15 -4 20
-11 15 -22 -4 -10 2 -18 17 -24 12 -5 31 -18 41 -30 11 -11 27 -21 36 -21 10
0 20 -6 23 -14 3 -7 14 -16 25 -18 28 -8 18 15 -14 32 -22 12 -33 30 -18 30 3
0 34 -24 69 -53 60 -49 126 -82 295 -145 68 -26 178 -54 192 -50 6 2 -14 33
-44 68 -53 63 -178 253 -178 271 0 5 -5 9 -11 9 -6 0 -9 6 -6 14 3 8 -1 17 -9
20 -8 3 -14 10 -14 16 0 6 11 3 24 -7 13 -10 21 -24 18 -32 -4 -10 -1 -13 10
-9 10 4 15 1 14 -9 0 -9 5 -18 13 -21 9 -3 11 0 6 8 -5 9 -4 11 3 6 7 -4 12
-13 12 -20 0 -7 9 -21 20 -31 17 -15 20 -16 20 -3 0 9 -7 19 -16 22 -9 4 -15
9 -12 11 2 3 22 -4 44 -15 21 -11 95 -50 164 -85 108 -57 252 -118 328 -140
27 -8 28 4 3 53 -10 20 -26 62 -36 92 -10 30 -26 73 -36 95 -35 79 -60 178
-48 189 8 8 13 7 16 -2 6 -15 26 -36 55 -57 12 -8 19 -17 16 -21 -4 -3 -15 3
-25 13 -27 25 -42 26 -35 1 6 -23 69 -64 92 -60 9 1 47 -23 86 -55 38 -32 80
-64 94 -71 46 -23 144 -77 177 -97 18 -10 35 -16 39 -12 3 3 -16 34 -43 69
-113 146 -107 162 17 46 90 -86 196 -166 205 -156 3 2 1 18 -5 34 -10 29 -32
145 -50 262 -6 35 -15 72 -20 82 -25 46 0 55 27 10z m-1649 -76 c-4 -3 -12 5
-18 18 -12 22 -12 22 6 6 10 -10 15 -20 12 -24z m1112 -14 c0 -5 -2 -10 -4
-10 -3 0 -8 5 -11 10 -3 6 -1 10 4 10 6 0 11 -4 11 -10z m-1485 -240 c3 -5 1
-10 -4 -10 -6 0 -11 5 -11 10 0 6 2 10 4 10 3 0 8 -4 11 -10z m-2459 -71 c22
-17 38 -38 36 -46 -2 -8 6 -26 18 -38 12 -13 20 -30 17 -37 -2 -7 -1 -20 4
-29 7 -14 2 -18 -24 -23 -84 -18 -96 -18 -119 -2 -12 9 -29 16 -36 16 -8 0
-47 17 -88 37 -81 41 -93 63 -46 87 15 8 49 17 75 21 26 4 58 16 70 26 31 26
49 24 93 -12z m2539 0 c4 -6 5 -12 2 -15 -7 -7 -37 7 -37 17 0 13 27 11 35 -2z
m-394 -136 c7 -8 5 -11 -8 -9 -18 3 -20 12 -13 59 2 18 4 16 7 -8 3 -16 9 -35
14 -42z m4289 -669 c16 -86 16 -89 0 -89 -17 0 -37 101 -26 130 9 25 15 15 26
-41z m688 -129 c-3 -27 -6 -30 -38 -30 -32 0 -35 3 -38 33 -3 26 1 34 20 41
34 12 59 -7 56 -44z m-496 -147 c11 -63 7 -98 -10 -98 -12 0 -22 59 -22 130 0
72 18 55 32 -32z m-291 -185 c20 -37 19 -180 -1 -193 -25 -15 -34 6 -36 83 -3
79 4 137 15 137 4 0 14 -12 22 -27z m-4464 -365 c-3 -8 -6 -5 -6 6 -1 11 2 17
5 13 3 -3 4 -12 1 -19z m-52 -28 c3 -6 -1 -7 -9 -4 -18 7 -21 14 -7 14 6 0 13
-4 16 -10z m75 -75 c0 -8 -2 -15 -4 -15 -2 0 -6 7 -10 15 -3 8 -1 15 4 15 6 0
10 -7 10 -15z m4294 -995 c6 -6 2 -12 -9 -16 -11 -5 -20 -3 -23 4 -2 7 -10 12
-18 12 -8 0 -14 5 -14 11 0 12 49 4 64 -11z m-636 -97 c-10 -2 -26 -2 -35 0
-10 3 -2 5 17 5 19 0 27 -2 18 -5z m-1171 -701 c-10 -2 -17 -7 -17 -12 0 -5
-7 -7 -15 -4 -8 4 -15 10 -15 15 0 5 7 9 15 9 8 0 15 5 15 11 0 8 6 7 17 -2
15 -13 15 -14 0 -17z m-1337 -73 c0 -6 -4 -7 -10 -4 -5 3 -10 11 -10 16 0 6 5
7 10 4 6 -3 10 -11 10 -16z m2085 -174 c0 -82 -3 -100 -15 -100 -12 0 -16 19
-18 103 -2 95 -1 103 15 100 16 -3 18 -15 18 -103z m135 -247 c0 -5 -4 -8 -10
-8 -5 0 -10 10 -10 23 0 18 2 19 10 7 5 -8 10 -18 10 -22z m-13 -50 c-3 -8 -6
-5 -6 6 -1 11 2 17 5 13 3 -3 4 -12 1 -19z m-119 -258 c3 -94 -8 -132 -28
-100 -11 17 -14 183 -3 194 19 19 28 -8 31 -94z m82 70 c0 -5 -7 -10 -16 -10
-8 0 -12 5 -9 10 3 6 10 10 16 10 5 0 9 -4 9 -10z"/>
<path d="M4820 6325 c0 -8 5 -15 10 -15 6 0 10 7 10 15 0 8 -4 15 -10 15 -5 0
-10 -7 -10 -15z"/>
<path d="M4260 6280 c0 -15 7 -20 28 -20 19 0 23 -3 13 -9 -9 -6 -10 -11 -2
-15 6 -4 11 -1 11 6 1 7 7 -2 15 -19 8 -18 20 -33 26 -33 7 0 20 -7 29 -15 18
-16 50 -11 50 7 0 7 -5 6 -14 -1 -11 -9 -15 -8 -20 4 -3 9 -10 14 -14 11 -5
-3 -14 5 -21 17 -6 12 -27 33 -46 46 -19 13 -35 27 -35 32 0 5 -4 9 -10 9 -5
0 -10 -9 -10 -20z"/>
<path d="M4442 6148 c2 -6 10 -14 16 -16 7 -2 10 2 6 12 -7 18 -28 22 -22 4z"/>
<path d="M2571 5362 c-17 -12 17 -19 99 -21 130 -3 374 -40 505 -77 110 -31
127 -37 238 -86 73 -33 95 -38 128 -33 49 8 51 30 9 79 -44 50 -153 89 -340
122 -109 19 -615 31 -639 16z"/>
<path d="M4943 5359 c-237 -23 -408 -74 -468 -141 -20 -22 -34 -45 -32 -51 2
-7 21 -15 43 -19 32 -5 53 0 119 30 95 42 233 87 330 107 116 24 354 55 424
55 83 0 111 15 45 24 -62 8 -357 5 -461 -5z"/>
<path d="M3195 5111 c11 -5 47 -19 80 -31 33 -13 74 -33 92 -46 17 -13 41 -24
52 -24 11 0 32 -5 48 -11 l28 -10 -21 21 c-21 21 -252 111 -283 109 -12 0 -11
-2 4 -8z"/>
<path d="M4770 5100 c-13 -9 -13 -10 0 -10 8 0 22 5 30 10 13 9 13 10 0 10 -8
0 -22 -5 -30 -10z"/>
<path d="M2796 5073 c-112 -20 -209 -68 -280 -137 l-59 -57 6 -51 c7 -55 69
-198 98 -224 17 -15 18 -12 12 74 -7 113 -2 132 48 181 38 36 152 91 165 79 2
-3 0 -17 -6 -32 -5 -15 -10 -38 -10 -52 0 -24 1 -24 30 -9 22 11 35 13 49 6
42 -23 43 -97 2 -143 -27 -31 -30 -32 -57 -18 -16 8 -32 16 -36 18 -13 6 -9
-79 7 -147 19 -78 68 -174 107 -207 17 -14 42 -24 59 -24 l30 0 -31 38 c-18
20 -42 62 -55 94 l-23 56 28 34 28 33 21 -37 c12 -20 33 -43 46 -52 30 -20 58
-21 33 -2 -36 27 -15 46 49 46 27 0 36 -5 40 -20 3 -12 11 -19 17 -17 11 3 49
55 60 80 8 19 36 -23 36 -54 0 -32 -34 -116 -57 -142 -21 -23 -9 -33 22 -19
38 17 73 80 96 172 18 71 21 103 16 193 -3 59 -4 107 -2 107 3 0 22 -9 44 -21
46 -24 53 -21 76 24 l16 32 -45 42 c-141 128 -381 193 -580 156z"/>
<path d="M4715 5080 c-8 -13 5 -13 25 0 13 8 13 10 -2 10 -9 0 -20 -4 -23 -10z"/>
<path d="M4902 5054 c-95 -28 -211 -90 -263 -140 l-36 -35 16 -34 c20 -43 39
-44 103 -5 52 32 64 36 70 19 2 -7 13 -5 31 4 53 28 97 -6 97 -76 0 -48 -35
-87 -80 -87 -23 0 -33 6 -42 25 -18 39 -28 19 -28 -53 0 -119 40 -243 98 -304
43 -46 70 -34 32 14 -24 31 -60 121 -60 151 0 28 29 68 36 50 11 -25 49 -77
60 -80 7 -2 11 3 10 13 -2 29 27 39 73 25 40 -11 54 -35 29 -44 -7 -2 -10 -7
-7 -11 8 -8 65 44 72 67 4 9 14 17 23 17 17 0 53 -38 54 -57 0 -27 -52 -126
-81 -154 l-31 -29 27 0 c84 0 164 123 184 286 10 82 -1 240 -19 274 -15 29
-12 33 20 26 38 -7 107 -62 127 -99 10 -20 14 -57 12 -125 -1 -53 2 -97 7 -96
16 1 93 165 100 212 8 56 -12 98 -71 149 -132 114 -369 155 -563 97z m103
-474 c3 -5 -1 -10 -9 -10 -9 0 -16 5 -16 10 0 6 4 10 9 10 6 0 13 -4 16 -10z"/>
<path d="M4630 5054 c-25 -9 -53 -24 -64 -34 -18 -17 -17 -17 20 -10 35 6 114
46 114 56 0 7 -25 3 -70 -12z"/>
<path d="M5870 4434 c-42 -22 -31 -39 25 -39 41 0 50 3 53 20 4 17 2 18 -12 6
-15 -13 -18 -12 -23 7 -6 25 -8 25 -43 6z"/>
<path d="M5808 4319 c-2 -6 0 -48 5 -93 l9 -83 -40 -79 c-56 -110 -87 -184
-76 -184 3 0 32 57 65 126 l59 126 0 99 c0 54 -4 99 -9 99 -5 0 -11 -5 -13
-11z"/>
<path d="M1800 7820 c0 -5 7 -10 15 -10 8 0 15 5 15 10 0 6 -7 10 -15 10 -8 0
-15 -4 -15 -10z"/>
<path d="M820 7690 c0 -6 7 -10 15 -10 8 0 15 2 15 4 0 2 -7 6 -15 10 -8 3
-15 1 -15 -4z"/>
<path d="M1008 5215 c-2 -3 -1 -28 2 -56 10 -74 31 -85 143 -70 11 2 8 47 -4
75 -7 14 -26 32 -44 41 -32 14 -86 20 -97 10z"/>
<path d="M634 4903 c14 -64 55 -126 94 -143 78 -35 211 -36 252 -1 19 15 19
18 3 74 -15 51 -21 60 -52 73 -22 9 -63 14 -106 14 -38 -1 -99 1 -134 5 l-63
8 6 -30z"/>
<path d="M945 4429 c-39 -4 -92 -14 -118 -23 -26 -9 -58 -16 -70 -16 -13 0
-28 -5 -35 -12 -24 -24 -73 -19 -125 14 -69 44 -129 48 -233 15 -43 -14 -130
-42 -193 -62 -62 -20 -126 -42 -142 -51 l-29 -15 0 -184 0 -185 31 0 c23 0 32
5 36 20 5 18 13 21 62 19 32 -1 75 5 101 15 25 9 51 19 59 21 11 4 11 8 1 21
-10 11 -10 18 -2 26 17 17 180 43 275 43 l89 0 33 -37 c26 -28 33 -44 31 -65
-4 -29 -52 -93 -70 -93 -5 0 -17 -6 -25 -14 -18 -16 -164 -25 -221 -13 -19 4
-47 10 -62 13 -19 4 -28 13 -33 35 -4 16 -10 31 -14 33 -13 8 -76 -11 -74 -22
4 -16 -33 -34 -65 -32 -15 1 -55 2 -89 1 l-63 -1 0 -349 0 -348 87 -6 c79 -6
92 -4 138 18 27 13 85 32 127 41 77 16 132 40 183 82 29 23 29 25 27 117 -1
75 3 104 18 139 11 24 17 51 14 59 -9 24 15 57 52 73 25 11 52 13 94 8 74 -8
110 0 110 26 0 10 -4 22 -10 25 -12 7 9 52 37 77 10 10 48 24 83 31 94 21 119
33 131 64 28 72 44 94 69 99 19 4 31 17 43 46 l18 40 -51 46 c-43 39 -91 108
-79 115 2 1 18 12 35 24 18 12 44 25 58 29 27 7 36 34 11 34 -8 0 -17 11 -21
25 -4 18 -14 26 -38 29 -64 10 -123 12 -191 5z m102 -178 c-7 -14 -22 -35 -34
-48 -13 -12 -23 -26 -23 -32 0 -5 -14 -12 -31 -16 -25 -6 -36 -2 -53 14 -20
21 -20 23 -3 32 10 6 22 20 26 31 8 22 58 44 103 44 24 1 25 -1 15 -25z m-797
-231 c8 -5 11 -10 5 -10 -5 0 -17 5 -25 10 -8 5 -10 10 -5 10 6 0 17 -5 25
-10z m-60 -39 c0 -6 -17 -7 -37 -4 -52 8 -54 13 -5 13 23 0 42 -4 42 -9z m276
-239 c-17 -18 -29 -22 -46 -17 -22 7 -21 8 11 41 31 32 35 33 46 17 11 -15 10
-21 -11 -41z m91 -5 c-5 -16 -49 -44 -79 -51 -24 -5 -28 -3 -28 14 0 15 8 22
29 26 17 4 32 12 35 19 6 16 49 8 43 -8z"/>
<path d="M1036 3706 c-26 -22 -45 -31 -61 -28 -12 2 -32 -1 -44 -7 -17 -9 -20
-19 -17 -53 7 -69 -11 -92 -114 -145 -25 -13 -66 -30 -93 -38 -49 -14 -51 -15
-65 -15 -5 0 -14 -11 -20 -24 -10 -23 -8 -27 39 -55 40 -25 60 -31 105 -31 49
0 63 -5 106 -36 54 -40 123 -76 180 -94 21 -6 40 -20 43 -30 3 -11 17 -28 31
-39 17 -14 21 -22 13 -27 -9 -5 -6 -10 9 -15 18 -7 20 -14 15 -46 -3 -21 -10
-44 -16 -51 -15 -19 -2 -25 59 -26 47 -1 59 -5 72 -23 8 -13 20 -23 28 -23 7
0 14 -12 16 -27 2 -23 9 -29 33 -31 17 -2 34 -7 38 -11 10 -10 81 6 119 25 14
8 28 10 30 5 2 -6 21 -5 48 1 25 6 75 12 113 15 39 3 67 9 67 16 0 6 7 18 16
28 14 16 14 20 0 41 -20 30 -10 101 21 147 1 2 9 -1 17 -8 24 -20 73 -30 85
-18 20 20 12 34 -38 61 -39 20 -51 34 -57 59 -15 65 -11 81 25 88 41 9 43 11
35 43 -8 34 -20 33 -58 -6 -54 -56 -79 -64 -206 -66 -127 -2 -176 10 -184 43
-10 40 -44 72 -83 80 -73 13 -123 42 -138 79 -8 20 -24 40 -35 46 -11 6 -18
15 -15 20 3 5 -2 13 -12 19 -16 9 -16 11 -2 28 39 44 34 133 -7 152 -38 17
-56 13 -98 -23z m24 -127 c0 -6 -4 -7 -10 -4 -5 3 -10 11 -10 16 0 6 5 7 10 4
6 -3 10 -11 10 -16z m649 -353 c9 -10 9 -16 1 -21 -16 -10 -40 2 -40 20 0 19
24 20 39 1z m-249 -336 c0 -5 -13 -10 -30 -10 -16 0 -30 5 -30 10 0 6 14 10
30 10 17 0 30 -4 30 -10z"/>
<path d="M5600 2970 c0 -5 5 -10 10 -10 6 0 10 5 10 10 0 6 -4 10 -10 10 -5 0
-10 -4 -10 -10z"/>
<path d="M6940 2950 c0 -28 75 -80 115 -80 42 0 108 27 102 43 -5 16 -88 42
-159 51 -54 6 -58 5 -58 -14z"/>
<path d="M2987 2453 c-39 -3 -47 -7 -43 -19 3 -9 3 -21 -1 -27 -4 -7 -8 -19
-8 -27 0 -8 -10 -16 -22 -18 -24 -4 -32 13 -10 21 7 3 5 6 -5 6 -10 1 -27 -8
-39 -20 -17 -17 -23 -18 -36 -8 -13 11 -14 10 -11 -7 4 -25 -18 -54 -40 -54
-12 0 -13 3 -4 12 7 7 12 25 12 41 0 26 -3 28 -32 27 -48 -3 -50 -2 -38 19 7
14 7 22 -2 27 -6 4 -13 3 -15 -2 -2 -5 -48 -8 -103 -6 -86 2 -100 0 -100 -14
0 -13 -7 -15 -43 -10 -24 4 -54 3 -66 -2 -21 -8 -20 -9 18 -21 37 -10 41 -15
35 -34 -19 -61 -23 -67 -53 -67 -24 0 -29 -4 -26 -20 3 -14 -2 -20 -16 -20
-13 0 -19 7 -19 23 0 13 -5 28 -12 35 -9 9 -9 12 0 12 7 0 12 5 12 11 0 6 -17
9 -42 7 -35 -2 -42 -6 -40 -21 4 -25 -15 -46 -37 -40 -12 3 -18 14 -19 35 0
16 -3 33 -7 36 -11 12 -85 10 -86 -1 0 -7 -2 -33 -5 -59 l-5 -48 41 0 c22 0
40 -4 40 -10 0 -5 -10 -10 -21 -10 -18 0 -19 -3 -9 -14 6 -8 21 -17 33 -19 12
-2 1 -5 -25 -6 -26 0 -50 -5 -53 -11 -3 -5 -28 -10 -56 -10 -27 0 -49 -4 -49
-10 0 -5 20 -10 44 -10 25 0 48 -5 52 -12 5 -8 -5 -9 -35 -5 -45 6 -81 0 -81
-14 0 -5 11 -9 25 -9 14 0 34 -9 46 -21 l21 -21 20 22 c15 16 23 18 33 10 7
-6 25 -10 40 -8 24 3 28 -1 31 -26 4 -39 9 -41 35 -17 13 12 26 21 31 21 4 0
8 9 8 20 0 11 7 20 15 20 17 0 20 16 5 25 -8 5 -7 11 1 21 6 8 9 23 6 34 -6
24 16 44 41 36 11 -4 42 -1 68 5 27 7 112 13 189 15 77 1 153 5 169 7 16 3 37
1 46 -5 12 -8 37 -8 81 -1 35 5 99 7 142 4 44 -3 80 -4 82 -1 2 3 7 58 10 123
l8 117 -39 -2 c-22 -1 -61 -3 -87 -5z m-502 -183 c3 -5 -1 -10 -10 -10 -9 0
-13 5 -10 10 3 6 8 10 10 10 2 0 7 -4 10 -10z m-241 -151 c-3 -5 -10 -7 -15
-3 -5 3 -7 10 -3 15 3 5 10 7 15 3 5 -3 7 -10 3 -15z m-74 -19 c0 -5 -5 -10
-11 -10 -5 0 -7 5 -4 10 3 6 8 10 11 10 2 0 4 -4 4 -10z"/>
<path d="M4682 2418 c0 -13 -1 -30 -3 -38 -2 -8 3 -15 11 -15 18 0 21 66 4 72
-6 2 -12 -6 -12 -19z"/>
<path d="M3185 2420 c-3 -5 -20 -7 -37 -3 l-31 6 6 -133 c3 -73 10 -137 16
-143 6 -6 11 -24 11 -39 0 -27 -2 -28 -45 -28 l-45 0 0 -85 c0 -47 -1 -88 -2
-92 -2 -5 17 -10 42 -13 44 -5 45 -6 48 -44 2 -22 -2 -42 -8 -46 -13 -8 -20
-121 -13 -197 6 -56 23 -70 43 -34 10 20 8 210 -5 376 -5 56 -3 119 4 167 7
43 13 120 13 173 1 82 4 95 18 95 24 0 31 10 19 31 -11 21 -24 24 -34 9z"/>
<path d="M2260 2390 c0 -5 12 -10 28 -9 24 0 25 1 7 9 -27 12 -35 12 -35 0z"/>
<path d="M1814 2374 c3 -9 6 -20 6 -25 0 -11 40 -12 57 -1 7 4 -4 14 -29 24
-35 15 -39 15 -34 2z"/>
<path d="M2040 2384 c0 -6 -11 -16 -25 -22 -35 -16 -31 -32 9 -32 39 0 55 25
31 49 -8 8 -15 11 -15 5z"/>
<path d="M3278 2378 l-48 -10 0 -43 c0 -23 3 -70 6 -104 6 -53 10 -62 26 -59
17 3 19 14 23 95 4 100 8 115 30 106 9 -3 15 1 15 11 0 9 -1 15 -2 15 -2 -1
-24 -6 -50 -11z"/>
<path d="M1443 2349 c-8 -8 -8 -18 -1 -35 11 -24 28 -33 28 -14 0 6 9 10 19
10 23 0 37 18 25 30 -16 14 -60 20 -71 9z"/>
<path d="M1640 2355 c0 -4 10 -16 22 -26 37 -33 143 -20 110 13 -12 12 -132
24 -132 13z"/>
<path d="M1868 2313 c7 -3 16 -2 19 1 4 3 -2 6 -13 5 -11 0 -14 -3 -6 -6z"/>
<path d="M1923 2304 c-7 -20 6 -32 16 -15 5 7 14 10 20 7 6 -4 11 -3 11 2 0
17 -41 22 -47 6z"/>
<path d="M1575 2298 c-2 -7 -5 -24 -7 -37 -3 -22 -5 -23 -18 -9 -18 18 -55 38
-69 38 -17 0 -13 -40 5 -47 10 -4 14 -13 10 -29 -8 -31 35 -74 46 -45 2 5 30
5 67 0 35 -5 66 -7 68 -5 6 6 -30 76 -39 76 -4 0 -8 8 -8 18 -1 37 -45 69 -55
40z"/>
<path d="M1825 2290 c-3 -5 -1 -10 4 -10 6 0 11 5 11 10 0 6 -2 10 -4 10 -3 0
-8 -4 -11 -10z"/>
<path d="M1880 2290 c0 -5 5 -10 11 -10 5 0 7 5 4 10 -3 6 -8 10 -11 10 -2 0
-4 -4 -4 -10z"/>
<path d="M1964 2247 c-16 -12 -24 -27 -22 -41 3 -18 10 -21 64 -24 51 -2 63 0
68 15 4 11 1 22 -8 29 -9 6 -14 13 -11 15 2 3 -12 9 -31 15 -30 10 -38 8 -60
-9z"/>
<path d="M2700 2182 c-41 -2 -79 -7 -84 -12 -6 -6 -25 -10 -44 -10 -29 0 -33
-2 -27 -21 5 -14 2 -25 -6 -30 -10 -6 -6 -9 13 -9 15 0 29 -4 33 -9 3 -6 -19
-8 -55 -4 -79 7 -91 -6 -86 -95 4 -70 14 -88 56 -97 39 -9 70 2 70 25 0 11 9
19 24 22 20 4 26 0 31 -20 3 -14 0 -33 -10 -48 -8 -13 -15 -30 -15 -39 0 -9
-9 -15 -21 -15 -11 0 -28 -7 -36 -16 -11 -10 -26 -14 -45 -10 -17 3 -28 1 -28
-5 0 -12 -77 -3 -95 11 -24 18 -158 27 -163 10 -5 -15 -29 -12 -36 5 -7 18
-45 20 -52 2 -2 -7 -14 -14 -27 -15 -12 -1 -56 -7 -97 -13 -41 -6 -101 -14
-133 -16 -32 -3 -69 -11 -83 -18 -18 -9 -36 -10 -65 -4 -38 9 -86 7 -196 -7
-41 -5 -52 -11 -57 -28 -4 -15 2 -27 22 -43 38 -32 64 -31 56 2 -7 28 -1 30
61 15 33 -8 48 -5 83 11 33 17 64 21 147 23 l105 1 10 -29 c5 -16 10 -39 10
-51 0 -24 21 -38 44 -29 7 3 21 -2 30 -11 15 -15 16 -15 17 2 5 70 35 103 67
71 9 -9 21 -9 49 0 21 6 80 14 131 17 51 2 101 9 111 15 11 6 45 7 80 4 60 -7
61 -7 67 -43 9 -59 14 -68 24 -51 6 10 10 3 16 -24 7 -40 -6 -59 -33 -49 -7 3
-19 0 -27 -6 -8 -7 -42 -11 -81 -10 -41 1 -70 -2 -74 -9 -5 -8 -17 -9 -40 -2
-18 5 -42 5 -54 1 -12 -5 -161 -12 -332 -15 -299 -7 -500 -19 -557 -32 -32 -7
-31 -13 -32 136 l-1 85 -45 7 c-78 12 -152 9 -148 -4 3 -7 -1 -19 -9 -26 -7
-7 -13 -21 -13 -30 0 -11 -20 -26 -55 -41 -30 -13 -55 -27 -55 -32 0 -5 -14
-16 -31 -25 -34 -17 -129 -109 -129 -124 0 -5 -7 -13 -16 -18 -11 -6 -15 -17
-11 -31 3 -11 1 -23 -3 -26 -12 -7 -75 30 -73 43 1 6 -12 15 -29 21 -24 9 -36
8 -52 -2 -23 -15 -96 -34 -168 -42 -26 -4 -53 -12 -60 -19 -9 -8 -49 -12 -128
-12 -87 1 -130 -4 -177 -19 -35 -11 -63 -23 -63 -27 0 -4 -7 -8 -16 -8 -9 0
-31 -7 -50 -16 l-34 -16 0 -295 c0 -272 1 -295 17 -289 9 4 20 1 24 -5 4 -7
36 -12 78 -13 63 -1 72 -3 77 -21 7 -29 48 -45 87 -34 17 5 39 6 49 3 13 -4
16 -1 12 10 -5 12 2 15 35 13 41 -1 59 -17 20 -17 -18 0 -20 -4 -15 -26 6 -23
-11 -83 -24 -85 -3 0 -13 -2 -23 -4 -9 -2 -15 1 -11 6 3 5 12 9 20 9 17 0 17
10 1 31 -16 21 -83 34 -91 17 -4 -9 -10 -6 -22 9 -9 13 -25 23 -35 23 -11 0
-18 3 -18 8 5 33 -3 42 -37 42 -31 0 -35 -2 -29 -20 6 -18 3 -20 -18 -15 -14
4 -28 2 -31 -4 -4 -6 -20 -11 -37 -11 l-29 0 0 -84 0 -83 30 -6 c16 -4 37 -4
47 0 11 4 14 3 9 -5 -4 -7 -15 -12 -24 -12 -11 0 -13 -3 -6 -10 12 -12 44 -3
44 11 0 5 24 9 53 9 57 0 73 7 72 30 -1 29 32 40 37 13 2 -12 14 -18 41 -19
20 -2 37 1 37 6 0 5 6 7 14 4 8 -3 28 2 45 11 26 13 31 21 31 51 0 28 -3 35
-15 30 -9 -3 -15 0 -15 8 0 8 6 17 13 19 9 4 9 6 0 6 -7 1 -13 8 -13 16 0 8 3
14 8 13 4 -1 18 2 32 5 14 4 41 8 61 10 19 2 52 13 71 25 48 30 72 29 66 -2
-4 -19 -1 -22 14 -18 10 2 18 -1 18 -7 0 -13 51 -4 61 11 3 5 29 11 58 13 45
4 51 3 41 -10 -6 -7 -43 -26 -81 -41 -54 -21 -76 -37 -99 -68 -17 -22 -30 -45
-30 -50 0 -6 7 -2 16 9 41 55 70 85 82 85 11 0 67 21 157 59 75 32 224 89 246
94 21 5 30 0 57 -35 23 -30 32 -52 32 -79 0 -20 7 -54 17 -75 9 -22 15 -60 14
-86 -1 -25 4 -66 12 -90 9 -26 13 -66 11 -100 -3 -36 -1 -58 6 -58 13 0 13
-43 -1 -57 -14 -14 -2 -56 14 -50 7 3 11 21 9 46 -2 27 1 40 8 36 5 -3 10 -18
10 -33 0 -22 2 -24 13 -12 26 29 39 90 32 146 -3 30 -11 54 -16 54 -5 0 0 9
11 20 11 11 24 20 30 20 15 0 12 16 -6 34 -14 15 -11 19 38 42 29 14 69 33 88
44 26 13 38 15 48 7 11 -8 6 -14 -21 -25 -35 -13 -48 -34 -62 -97 -12 -52 -55
-318 -55 -337 0 -17 14 -18 200 -18 l200 0 -3 55 c-3 71 16 94 63 75 18 -7 36
-24 41 -37 8 -20 14 -23 41 -18 24 4 40 0 57 -13 20 -16 29 -17 53 -8 32 12
33 33 3 50 -28 16 -62 52 -69 74 -4 11 -18 24 -31 30 -14 6 -25 18 -25 26 0 7
-7 19 -15 26 -8 7 -15 21 -15 32 0 17 -3 18 -15 8 -9 -8 -15 -8 -15 -2 0 6 -8
13 -17 15 -10 3 -4 5 12 4 29 -2 30 -1 28 38 -2 54 14 103 38 110 10 4 19 15
19 25 0 41 74 36 84 -6 4 -14 18 -29 33 -35 14 -5 47 -30 72 -54 158 -152 171
-162 171 -144 0 25 69 -40 113 -106 25 -38 47 -57 97 -83 36 -18 72 -40 81
-48 13 -11 63 -14 262 -14 l247 0 0 34 c0 34 -31 151 -76 285 -14 41 -26 87
-27 103 -3 40 -18 35 -50 -18 -18 -31 -32 -43 -38 -37 -6 6 9 45 43 111 l53
102 -31 29 c-24 23 -30 36 -27 55 3 15 9 29 14 32 5 3 9 10 9 16 0 6 -14 -7
-31 -28 -17 -22 -38 -42 -47 -45 -14 -5 -11 -9 14 -22 54 -28 58 -39 32 -99
-13 -29 -31 -64 -40 -78 -17 -24 -18 -24 -53 -7 -20 9 -43 17 -51 17 -30 0
-75 34 -70 52 7 31 -13 19 -27 -14 -8 -18 -24 -42 -36 -52 -11 -11 -21 -26
-21 -34 0 -11 -8 -13 -30 -8 -39 7 -202 89 -246 122 -29 23 -32 29 -22 48 6
11 19 27 30 34 10 7 18 22 18 33 0 10 6 19 14 19 16 0 26 -21 26 -53 0 -25 34
-86 58 -104 38 -30 160 2 182 47 30 59 33 156 7 190 -20 26 -81 68 -102 70
-36 4 -44 0 -81 -35 -53 -52 -86 -46 -44 8 11 14 20 30 20 35 0 6 11 23 23 39
25 30 37 50 86 151 17 34 33 62 36 62 3 0 3 -17 -1 -37 -5 -32 -1 -45 25 -80
46 -64 124 -80 196 -42 74 40 99 93 89 194 -7 64 -6 69 9 56 11 -9 17 -10 17
-2 0 6 7 11 15 11 8 0 15 -4 15 -10 0 -5 -6 -10 -12 -10 -10 0 -10 -2 -1 -8 6
-4 12 -14 14 -22 4 -18 -33 -110 -43 -110 -5 0 -8 -6 -8 -14 0 -14 -92 -218
-110 -246 -6 -8 -20 -35 -31 -60 -11 -25 -25 -55 -31 -67 -6 -13 -9 -25 -6
-28 6 -6 48 60 48 76 0 5 5 9 12 9 6 0 9 3 5 6 -6 6 62 144 87 177 14 18 16
18 55 -3 23 -11 41 -27 41 -35 0 -9 6 -12 15 -9 8 4 33 -1 55 -10 51 -20 59
-20 53 2 -2 10 3 24 11 31 9 8 16 18 16 23 0 5 16 37 35 70 35 60 39 98 10 98
-7 0 -23 8 -35 18 -21 17 -22 20 -7 49 13 24 14 34 4 46 -14 19 -74 36 -63 18
4 -6 1 -11 -7 -11 -21 0 -28 12 -16 26 9 11 -13 25 -107 70 -202 95 -236 107
-256 95 -14 -9 -48 4 -177 69 -87 43 -162 83 -165 88 -11 18 59 22 391 22 314
0 334 1 329 18 -7 23 -12 204 -6 220 6 16 -12 28 -52 37 -28 5 -28 6 -28 90 0
63 -3 84 -12 82 -7 -1 -13 5 -13 13 0 8 6 14 13 13 9 -2 12 22 12 96 l0 98
-82 2 c-46 1 -101 3 -123 4 -22 1 -74 1 -115 -1z m310 -152 c0 -16 -2 -30 -4
-30 -2 0 -6 14 -8 30 -3 17 -1 30 4 30 4 0 8 -13 8 -30z m-43 -63 c-1 -14 -5
-23 -9 -21 -13 8 -38 67 -32 76 10 16 42 -27 41 -55z m-357 9 c0 -3 -4 -8 -10
-11 -5 -3 -10 -1 -10 4 0 6 5 11 10 11 6 0 10 -2 10 -4z m377 -78 c-3 -7 -5
-2 -5 12 0 14 2 19 5 13 2 -7 2 -19 0 -25z m-189 -184 c13 -4 22 -14 22 -25 0
-11 7 -19 18 -19 14 0 16 -8 14 -50 -4 -58 -4 -57 -120 -63 -68 -3 -73 -2 -70
16 4 29 56 42 81 20 25 -23 51 -6 55 35 l3 31 -36 -10 c-29 -8 -41 -7 -61 6
-32 21 -30 33 9 50 36 16 52 17 85 9z m136 -39 c2 -7 -1 -18 -8 -24 -17 -14
-41 12 -32 34 6 17 32 10 40 -10z m-1771 -283 c6 -53 -13 -67 -82 -57 -81 11
-89 16 -53 31 18 7 32 19 32 27 0 27 25 66 45 70 30 5 52 -22 58 -71z m1589
-184 c-6 -6 -15 -8 -19 -4 -4 4 -1 11 7 16 19 12 27 3 12 -12z m243 -8 c3 -5
1 -10 -4 -10 -6 0 -11 5 -11 10 0 6 2 10 4 10 3 0 8 -4 11 -10z m165 -91 c0
-14 -17 -10 -23 5 -4 10 -1 13 9 9 7 -3 14 -9 14 -14z m-45 -70 c19 -12 40
-29 45 -39 14 -27 1 -82 -29 -119 -25 -31 -29 -33 -52 -21 -13 8 -37 14 -53
16 -32 2 -62 27 -52 43 4 6 18 8 30 5 19 -4 27 1 45 32 18 31 20 42 12 61 -23
49 -5 56 54 22z m-85 -57 c0 -13 -12 -22 -22 -16 -10 6 -1 24 13 24 5 0 9 -4
9 -8z m-1711 -118 c10 -9 -24 -34 -45 -34 -14 0 -24 -6 -24 -15 0 -13 -55 -35
-87 -35 -17 0 -16 15 1 29 7 6 16 25 20 42 l6 31 62 -7 c35 -4 65 -9 67 -11z
m-489 -24 c0 -6 10 -8 24 -4 19 4 26 1 31 -16 6 -20 -12 -56 -23 -45 -3 3 -10
1 -17 -5 -12 -10 -85 5 -85 18 0 11 50 62 60 62 6 0 10 -5 10 -10z m640 6 c0
-9 -30 -14 -35 -6 -4 6 3 10 14 10 12 0 21 -2 21 -4z m62 -8 c-17 -8 -26 -8
-34 0 -9 9 -4 12 23 11 32 0 33 -1 11 -11z m508 -98 c0 -5 -2 -10 -4 -10 -3 0
-8 5 -11 10 -3 6 -1 10 4 10 6 0 11 -4 11 -10z m117 -46 c-3 -3 -12 -4 -19 -1
-8 3 -5 6 6 6 11 1 17 -2 13 -5z m186 -44 c9 -8 -19 -76 -35 -86 -5 -3 -16 0
-24 7 -14 11 -14 13 0 21 26 15 19 25 -30 44 -44 17 -47 17 -59 1 -16 -22 -45
-22 -45 -1 0 14 3 14 15 4 12 -10 15 -10 15 3 0 8 6 17 13 20 17 7 140 -4 150
-13z m-90 -47 c-3 -8 -12 -12 -20 -9 -8 3 -17 6 -19 6 -2 0 -4 6 -4 14 0 9 8
12 24 9 16 -4 23 -10 19 -20z m-2023 -129 c0 -8 -5 -12 -10 -9 -6 4 -8 11 -5
16 9 14 15 11 15 -7z m1445 -28 c27 -22 28 -25 12 -31 -11 -5 -22 -2 -30 8 -7
9 -25 23 -42 32 l-30 15 30 0 c17 0 43 -11 60 -24z m1099 -17 c31 -24 32 -36
9 -84 -19 -39 -32 -43 -74 -18 -33 20 -35 35 -14 87 18 42 40 46 79 15z
m-1456 -140 c-2 -6 -8 -10 -13 -10 -5 0 -11 4 -13 10 -2 6 4 11 13 11 9 0 15
-5 13 -11z"/>
<path d="M2362 2163 c-19 -8 -4 -23 24 -23 16 0 24 5 22 13 -5 13 -26 18 -46
10z"/>
<path d="M2305 2149 c-12 -19 5 -23 22 -6 16 16 16 17 1 17 -9 0 -20 -5 -23
-11z"/>
<path d="M1728 2121 c-35 -8 -78 -46 -78 -69 0 -25 31 -52 58 -52 16 0 22 6
22 21 0 12 14 34 30 49 19 18 28 34 24 44 -6 17 -12 18 -56 7z"/>
<path d="M1886 2105 c-3 -8 -1 -15 4 -15 6 0 10 7 10 15 0 8 -2 15 -4 15 -2 0
-6 -7 -10 -15z"/>
<path d="M1947 2043 c-12 -11 4 -23 29 -23 15 0 24 5 22 12 -4 12 -42 21 -51
11z"/>
<path d="M1461 2027 c-15 -15 -15 -134 1 -143 20 -12 60 47 53 79 -7 41 -39
79 -54 64z"/>
<path d="M1864 1998 c-4 -7 2 -18 14 -26 12 -8 22 -20 22 -27 0 -11 20 -25 36
-25 2 0 4 11 4 24 0 15 -11 33 -26 45 -31 24 -40 26 -50 9z"/>
<path d="M2172 1928 c-17 -21 2 -40 34 -36 21 2 29 8 29 23 0 24 -46 33 -63
13z"/>
<path d="M1665 1900 c-30 -33 -13 -66 45 -85 27 -9 54 -14 60 -10 15 9 12 45
-4 45 -7 0 -21 16 -30 35 -19 40 -44 45 -71 15z"/>
<path d="M2105 1850 c-3 -5 1 -10 10 -10 9 0 13 5 10 10 -3 6 -8 10 -10 10 -2
0 -7 -4 -10 -10z"/>
<path d="M3238 1793 c-1 -4 -2 -50 -2 -100 -1 -89 0 -93 21 -93 20 0 22 6 25
75 4 90 -2 119 -25 123 -9 2 -18 0 -19 -5z"/>
<path d="M1758 1773 c7 -3 16 -2 19 1 4 3 -2 6 -13 5 -11 0 -14 -3 -6 -6z"/>
<path d="M1345 1751 c-3 -5 -1 -12 5 -16 12 -7 30 2 30 16 0 12 -27 12 -35 0z"/>
<path d="M2160 1650 c0 -5 5 -10 10 -10 6 0 10 5 10 10 0 6 -4 10 -10 10 -5 0
-10 -4 -10 -10z"/>
<path d="M2095 1629 c-2 -8 -6 -30 -7 -49 -3 -31 0 -35 24 -38 20 -2 31 3 43
22 21 31 16 62 -9 58 -9 -2 -24 2 -32 9 -11 9 -15 8 -19 -2z"/>
<path d="M1576 1575 c-3 -9 1 -18 10 -22 19 -7 28 2 21 22 -8 19 -23 19 -31 0z"/>
<path d="M3187 1560 c3 -11 11 -19 17 -17 17 6 13 31 -6 35 -12 2 -15 -2 -11
-18z"/>
<path d="M5700 1480 c14 -11 31 -20 38 -20 24 0 82 -32 82 -45 0 -15 -191
-114 -208 -108 -7 3 -81 -29 -165 -70 -84 -41 -178 -87 -210 -101 -67 -31 -77
-48 -53 -90 19 -32 19 -32 -31 -62 -17 -11 -17 -14 11 -72 17 -34 27 -69 23
-81 -3 -13 4 -29 20 -46 30 -29 40 -31 72 -9 16 12 26 13 33 6 13 -13 -6 -42
-26 -42 -16 0 -66 -52 -66 -68 0 -7 -8 -29 -19 -50 -10 -20 -17 -45 -15 -55 2
-19 -95 -426 -122 -505 -8 -23 -14 -47 -14 -52 0 -6 108 -10 284 -10 l285 0
43 29 c40 27 178 171 178 186 0 10 84 117 113 144 14 13 23 29 21 36 -3 7 0
16 5 20 6 3 9 10 6 15 -6 10 -107 -30 -183 -72 -60 -33 -73 -32 -95 9 -8 15
-31 59 -51 97 -38 74 -67 113 -45 61 7 -16 20 -40 27 -52 8 -13 12 -29 9 -37
-7 -18 -139 -88 -148 -78 -8 7 -109 207 -106 207 1 0 18 9 37 19 99 55 110 59
125 46 22 -18 19 -7 -18 68 -19 37 -46 99 -62 137 -16 39 -37 79 -47 91 -10
11 -18 27 -18 35 0 8 -11 47 -24 87 -31 95 -25 105 91 162 50 25 98 51 106 57
19 18 43 -10 52 -59 4 -23 13 -38 22 -38 11 0 12 -8 7 -35 -6 -35 -1 -40 33
-36 6 1 24 -20 39 -45 36 -62 44 -37 9 27 -25 47 -25 49 -6 49 11 0 22 4 26 9
9 15 -25 42 -45 36 -25 -8 -43 17 -27 38 11 15 18 16 77 3 36 -7 68 -11 73 -9
14 8 -4 23 -27 23 -21 0 -51 23 -51 39 0 3 -15 5 -33 5 -26 -1 -30 1 -21 12 6
8 26 14 43 14 24 0 36 8 53 34 13 20 47 48 82 67 34 19 62 42 65 53 3 11 4 21
3 22 -6 6 -177 24 -227 24 l-55 0 25 -20z m-323 -521 c61 -102 63 -96 -29
-141 -44 -21 -65 -9 -88 52 -8 19 -20 41 -27 48 -26 27 -16 54 32 90 50 36 65
29 112 -49z m-49 -427 c3 -30 1 -33 -20 -30 -13 2 -22 6 -20 11 1 4 2 19 2 33
0 40 34 28 38 -14z m452 -346 c0 -3 -4 -8 -10 -11 -5 -3 -10 -1 -10 4 0 6 5
11 10 11 6 0 10 -2 10 -4z"/>
<path d="M5325 970 c3 -5 8 -10 11 -10 2 0 4 5 4 10 0 6 -5 10 -11 10 -5 0 -7
-4 -4 -10z"/>
<path d="M6315 1360 c6 -41 15 -89 60 -300 8 -36 17 -83 20 -105 3 -22 11 -64
17 -93 l11 -53 41 6 c52 9 71 25 28 25 -26 0 -33 4 -37 28 -4 15 -11 45 -16
67 -6 22 -21 87 -35 145 -13 58 -30 134 -39 170 -27 120 -61 194 -50 110z"/>
<path d="M5472 1153 c-6 -10 -13 -40 -16 -68 -10 -68 27 -156 73 -175 36 -15
74 -7 101 20 16 16 20 34 20 90 l0 70 -42 27 c-84 55 -121 64 -136 36z m34
-58 c7 -18 -12 -45 -32 -45 -7 0 -11 7 -9 15 3 8 7 22 10 30 6 19 24 19 31 0z"/>
<path d="M5810 1112 c0 -15 32 -24 44 -12 7 7 7 10 -1 10 -6 0 -18 3 -27 6 -9
3 -16 2 -16 -4z"/>
<path d="M5796 1017 c-24 -17 -16 -54 19 -94 19 -22 24 -24 25 -11 0 9 -7 21
-16 26 -21 12 -10 49 17 57 11 4 18 12 16 18 -5 18 -40 20 -61 4z"/>
<path d="M5970 965 c0 -9 5 -15 11 -13 6 2 11 8 11 13 0 5 -5 11 -11 13 -6 2
-11 -4 -11 -13z"/>
<path d="M5880 934 c0 -8 5 -12 10 -9 6 4 8 11 5 16 -9 14 -15 11 -15 -7z"/>
<path d="M5880 894 c0 -8 5 -12 10 -9 6 4 8 11 5 16 -9 14 -15 11 -15 -7z"/>
<path d="M6727 880 c-3 -11 -1 -20 4 -20 5 0 9 9 9 20 0 11 -2 20 -4 20 -2 0
-6 -9 -9 -20z"/>
<path d="M5870 842 c0 -11 8 -30 18 -42 15 -18 21 -20 45 -11 28 11 38 41 12
41 -8 0 -15 -4 -15 -10 0 -5 -9 -10 -20 -10 -13 0 -20 7 -20 19 0 11 -4 23
-10 26 -5 3 -10 -3 -10 -13z"/>
<path d="M6560 850 c-12 -8 -11 -10 8 -10 12 0 22 5 22 10 0 13 -11 13 -30 0z"/>
<path d="M6290 811 c-25 -14 -125 -51 -136 -51 -7 0 -17 -7 -24 -15 -7 -8 -21
-15 -32 -15 -10 0 -36 -9 -58 -20 -22 -11 -48 -20 -59 -20 -11 0 -22 9 -26 20
-3 11 -13 20 -20 20 -12 0 -12 -8 3 -47 16 -43 21 -48 47 -45 48 5 347 151
342 166 -5 14 -19 16 -37 7z"/>
<path d="M5720 708 c-28 -30 -27 -56 3 -51 33 7 51 -34 31 -72 -8 -16 -12 -36
-9 -47 5 -13 1 -18 -14 -18 -11 0 -23 5 -26 10 -3 6 -12 10 -18 10 -14 -1 49
-60 64 -60 5 0 9 7 7 17 -2 10 7 19 25 24 43 12 55 27 62 74 8 48 -10 94 -47
119 -31 22 -54 20 -78 -6z"/>
<path d="M6418 657 c-88 -15 -69 -27 34 -22 106 5 138 13 117 26 -17 11 -76 9
-151 -4z"/>
<path d="M598 593 c7 -3 16 -2 19 1 4 3 -2 6 -13 5 -11 0 -14 -3 -6 -6z"/>
<path d="M5580 595 c0 -5 5 -17 10 -25 5 -8 10 -10 10 -5 0 6 -5 17 -10 25 -5
8 -10 11 -10 5z"/>
<path d="M2750 554 c0 -8 5 -12 10 -9 6 3 10 10 10 16 0 5 -4 9 -10 9 -5 0
-10 -7 -10 -16z"/>
<path d="M555 383 c-21 -27 -28 -39 -16 -28 23 19 66 75 59 75 -2 0 -21 -21
-43 -47z"/>
<path d="M6562 329 c2 -16 -5 -27 -21 -35 -13 -7 -28 -20 -33 -28 -5 -9 -14
-16 -19 -16 -6 0 -41 -25 -79 -55 -38 -30 -73 -55 -78 -55 -24 0 -17 -31 16
-83 l37 -56 138 -1 c114 0 137 2 137 15 0 8 -7 62 -16 119 -19 133 -43 210
-67 214 -13 3 -16 -2 -15 -19z"/>
<path d="M382 191 c-28 -31 -58 -65 -66 -76 -16 -25 -31 -115 -18 -115 5 0 12
20 15 45 4 24 15 55 26 67 61 74 110 138 104 137 -5 -1 -32 -27 -61 -58z"/>
<path d="M2345 190 c3 -5 8 -10 11 -10 2 0 4 5 4 10 0 6 -5 10 -11 10 -5 0 -7
-4 -4 -10z"/>
<path d="M6214 66 c-10 -8 -15 -18 -11 -22 4 -4 15 0 24 9 22 21 12 31 -13 13z"/>
<path d="M1285 10 c-3 -5 -1 -10 4 -10 6 0 11 5 11 10 0 6 -2 10 -4 10 -3 0
-8 -4 -11 -10z"/>
</g>
</svg>
